HIERARCHY
ROOT Hips
{
	OFFSET 0.000000 0.000000 0.000000
	CHANNELS 6 Xposition Yposition Zposition Zrotation Yrotation Xrotation 
	JOINT LHipJoint
	{
		OFFSET 0.000000 0.000000 0.000000
		CHANNELS 3 Zrotation Yrotation Xrotation
		JOINT LeftUpLeg
		{
			OFFSET 1.363060 -1.794630 0.839290
			CHANNELS 3 Zrotation Yrotation Xrotation
			JOINT LeftLeg
			{
				OFFSET 2.448110 -6.726130 0.000000
				CHANNELS 3 Zrotation Yrotation Xrotation
				JOINT LeftFoot
				{
					OFFSET 2.562200 -7.039590 0.000000
					CHANNELS 3 Zrotation Yrotation Xrotation
					JOINT LeftToeBase
					{
						OFFSET 0.157640 -0.433110 2.322550
						CHANNELS 3 Zrotation Yrotation Xrotation
						End Site
						{
							OFFSET 0.000000 0.000000 0.000000
						}
					}
				}
			}
		}
	}
	JOINT RHipJoint
	{
		OFFSET 0.000000 0.000000 0.000000
		CHANNELS 3 Zrotation Yrotation Xrotation
		JOINT RightUpLeg
		{
			OFFSET -1.305520 -1.794630 0.839290
			CHANNELS 3 Zrotation Yrotation Xrotation
			JOINT RightLeg
			{
				OFFSET -2.542530 -6.985550 0.000000
				CHANNELS 3 Zrotation Yrotation Xrotation
				JOINT RightFoot
				{
					OFFSET -2.568260 -7.056230 0.000000
					CHANNELS 3 Zrotation Yrotation Xrotation
					JOINT RightToeBase
					{
						OFFSET -0.164730 -0.452590 2.363150
						CHANNELS 3 Zrotation Yrotation Xrotation
						End Site
						{
							OFFSET 0.000000 0.000000 0.000000
						}
					}
				}
			}
		}
	}
	JOINT LowerBack
	{
		OFFSET 0.000000 0.000000 0.000000
		CHANNELS 3 Zrotation Yrotation Xrotation
		JOINT Spine
		{
			OFFSET 0.028270 2.035590 -0.193380
			CHANNELS 3 Zrotation Yrotation Xrotation
			JOINT Spine1
			{
				OFFSET 0.056720 2.048850 -0.042750
				CHANNELS 3 Zrotation Yrotation Xrotation
				JOINT Neck
				{
					OFFSET 0.000000 0.000000 0.000000
					CHANNELS 3 Zrotation Yrotation Xrotation
					JOINT Neck1
					{
						OFFSET -0.054170 1.746240 0.172020
						CHANNELS 3 Zrotation Yrotation Xrotation
						JOINT Head
						{
							OFFSET 0.104070 1.761360 -0.123970
							CHANNELS 3 Zrotation Yrotation Xrotation
							End Site
							{
								OFFSET 0.000000 0.000000 0.000000
							}
						}
					}
				}
				JOINT LeftShoulder
				{
					OFFSET 0.000000 0.000000 0.000000
					CHANNELS 3 Zrotation Yrotation Xrotation
					JOINT LeftArm
					{
						OFFSET 3.362410 1.200890 -0.311210
						CHANNELS 3 Zrotation Yrotation Xrotation
						JOINT LeftForeArm
						{
							OFFSET 4.983000 -0.000000 -0.000000
							CHANNELS 3 Zrotation Yrotation Xrotation
							JOINT LeftHand
							{
								OFFSET 3.483560 -0.000000 -0.000000
								CHANNELS 3 Zrotation Yrotation Xrotation
								JOINT LeftFingerBase
								{
									OFFSET 0.000000 0.000000 0.000000
									CHANNELS 3 Zrotation Yrotation Xrotation
									JOINT LeftHandIndex1
									{
										OFFSET 0.715260 -0.000000 -0.000000
										CHANNELS 3 Zrotation Yrotation Xrotation
										End Site
										{
											OFFSET 0.000000 0.000000 0.000000
										}
									}
								}
								JOINT LThumb
								{
									OFFSET 0.000000 0.000000 0.000000
									CHANNELS 3 Zrotation Yrotation Xrotation
									End Site
									{
										OFFSET 0.000000 0.000000 0.000000
									}
								}
							}
						}
					}
				}
				JOINT RightShoulder
				{
					OFFSET 0.000000 0.000000 0.000000
					CHANNELS 3 Zrotation Yrotation Xrotation
					JOINT RightArm
					{
						OFFSET -3.136600 1.374050 -0.404650
						CHANNELS 3 Zrotation Yrotation Xrotation
						JOINT RightForeArm
						{
							OFFSET -5.241900 -0.000000 -0.000000
							CHANNELS 3 Zrotation Yrotation Xrotation
							JOINT RightHand
							{
								OFFSET -3.444170 -0.000000 -0.000000
								CHANNELS 3 Zrotation Yrotation Xrotation
								JOINT RightFingerBase
								{
									OFFSET 0.000000 0.000000 0.000000
									CHANNELS 3 Zrotation Yrotation Xrotation
									JOINT RightHandIndex1
									{
										OFFSET -0.622530 -0.000000 -0.000000
										CHANNELS 3 Zrotation Yrotation Xrotation
										End Site
										{
											OFFSET 0.000000 0.000000 0.000000
										}
									}
								}
								JOINT RThumb
								{
									OFFSET 0.000000 0.000000 0.000000
									CHANNELS 3 Zrotation Yrotation Xrotation
									End Site
									{
										OFFSET 0.000000 0.000000 0.000000
									}
								}
							}
						}
					}
				}
			}
		}
	}
}
MOTION
Frames: 4
Frame Time: 0.008333
-1.728519 17.636214 39.586649 5.601989 42.337975 13.637634 -6.678746 -0.210758 1.914276 5.614437 -7.412882 -15.185811 1.924577 10.544598 27.738619 -2.665611 14.897973 23.991298 2.517800 -9.870100 -28.557100 3.968065 2.081747 -1.722292 3.770727 -6.103691 -31.933872 -2.860452 -12.538970 34.371183 1.443900 -8.315983 11.300688 -0.029700 -1.112600 3.058600 0.219540 -1.354869 21.499772 0.016448 -1.011136 -2.882017 4.043584 -0.548807 -8.296848 -13.950261 -13.983489 -6.155918 13.854346 -16.958463 -5.519496 6.511000 -8.073700 2.848000 1.375498 -3.171530 0.170278 -83.750757 15.380142 3.607956 32.913895 -42.008858 -17.058580 -0.816915 -1.037232 -1.298242 20.574959 10.301393 4.404300 -7.125000 0.000000 0.000000 -5.132500 42.062000 0.373100 -2.771472 3.430427 0.177605 85.413870 -8.092125 10.684902 -18.104125 27.806533 -6.296571 1.753280 1.478165 -3.724881 -21.117155 -10.686934 5.033400 7.125000 0.000000 0.000000 3.848000 -42.940400 0.195900 
-1.727680 17.674157 39.702471 5.635628 41.644373 13.535046 -6.734731 -0.083740 2.042368 5.646370 -7.435289 -14.768489 1.960695 10.539858 27.546942 -2.758056 15.618033 25.012162 2.489800 -9.819300 -28.393500 4.118709 2.046257 -1.645496 3.770092 -5.578568 -31.345393 -2.722519 -12.435110 33.960671 1.439858 -8.324362 11.281284 -0.035800 -1.220900 3.356900 0.122129 -1.400144 21.095963 -0.005881 -1.116579 -2.924418 3.987208 -0.611028 -8.241007 -13.804979 -13.854476 -6.405175 13.709534 -16.772250 -5.385651 6.426900 -7.981600 2.889700 1.366977 -3.194096 0.157606 -83.862871 15.088651 3.544332 32.653122 -41.814829 -16.842511 -0.813462 -1.031377 -1.094384 20.382259 10.290690 4.354100 -7.125000 0.000000 0.000000 -5.308400 42.027400 0.390500 -2.788265 3.422387 0.158127 85.578747 -8.075994 11.044129 -18.163440 27.866229 -6.321948 1.758072 1.477580 -3.774975 -21.201635 -10.695413 5.057700 7.125000 0.000000 0.000000 3.767300 -42.955900 0.190300 
-1.727994 17.710948 39.817664 5.670251 40.974613 13.434832 -6.795337 0.037455 2.158428 5.668032 -7.463921 -14.380479 2.013556 10.552697 27.392231 -2.851876 16.385622 26.034904 2.434600 -9.717900 -28.068100 4.267319 2.006975 -1.563615 3.773092 -5.058818 -30.758457 -2.586990 -12.328278 33.549606 1.441157 -8.344966 11.256299 -0.042300 -1.327500 3.650500 0.043879 -1.456335 20.707267 -0.027809 -1.232566 -2.974609 3.915457 -0.677399 -8.212818 -13.618238 -13.723638 -6.644376 13.530687 -16.590193 -5.243804 6.318700 -7.895000 2.926300 1.361709 -3.216879 0.142435 -83.976258 14.850405 3.535227 32.436096 -41.651798 -16.659766 -0.808018 -1.023571 -0.877863 20.178384 10.238914 4.285300 -7.125000 0.000000 0.000000 -5.489100 41.946700 0.414900 -2.801906 3.413881 0.136121 85.738220 -8.079079 11.430709 -18.219187 27.922301 -6.344990 1.758844 1.474349 -3.835250 -21.244181 -10.665944 5.054100 7.125000 0.000000 0.000000 3.722000 -42.923400 0.191000 
-1.729357 17.746690 39.932018 5.693216 40.331820 13.331373 -6.857585 0.151966 2.260193 5.687620 -7.500631 -14.026079 2.085486 10.584741 27.280784 -2.942817 17.193588 27.058356 2.354100 -9.567700 -27.587900 4.414807 1.964502 -1.475558 3.790713 -4.552761 -30.177201 -2.451936 -12.216267 33.132315 1.446162 -8.374178 11.230387 -0.048600 -1.422300 3.911700 -0.005586 -1.524780 20.330797 -0.048903 -1.358944 -3.032723 3.832812 -0.747834 -8.210601 -13.435945 -13.584697 -6.886024 13.348575 -16.396916 -5.080094 6.209800 -7.803600 2.975100 1.357034 -3.238309 0.124674 -84.087829 14.680291 3.592660 32.279285 -41.532267 -16.522582 -0.798722 -1.012627 -0.646528 19.945334 10.111553 4.180700 -7.125000 0.000000 0.000000 -5.686600 41.780300 0.453300 -2.814413 3.406637 0.112458 85.883054 -8.095988 11.850757 -18.263729 27.966718 -6.361485 1.755034 1.467574 -3.900698 -21.233952 -10.591015 5.016700 7.125000 0.000000 0.000000 3.721600 -42.832900 0.199300 
